HandBrake 20250220183715-e117cfe7f-makepkg (2025042301)
OS: Arch Linux
Kernel: Linux 6.12.41-1-lts (x86_64)
CPU: AMD Ryzen 7 5800X3D 8-Core Processor x 16
Install Dir: /usr/bin
Config Dir:  /home/ray/.config/ghb
_______________________________

[14:40:42] Compile-time hardening features are enabled
[14:40:42] nvenc: version 13.0 is available
[14:40:42] nvdec: is not compiled into this build
[14:40:42] CUDA Version: 8.9
[14:40:42] qsv: not available on this system
[14:40:42] hb_init: starting libhb thread
[14:40:42] hb_init: starting libhb thread
[14:40:42] hb_init: starting libhb thread
[14:41:17] gtkgui: Excluded extension jpg
[14:41:17] gtkgui: Excluded extension png
[14:41:17] gtkgui: Excluded extension srt
[14:41:17] gtkgui: Excluded extension ssa
[14:41:17] gtkgui: Excluded extension ass
[14:41:17] gtkgui: Excluded extension txt
[14:41:17] CPU: AMD Ryzen 7 5800X3D 8-Core Processor
[14:41:17]  - logical processor count: 16
[14:41:17] Intel Quick Sync Video support: no
[14:41:17] hb_scan: path=/mnt/HDD/Media(2)/Extras/TVアニメ「フードコートで、また明日。」ノンクレジットオープニング映像｜7月7日（月）よりTOKYO MX他各局にて放送中！ [Mes1XCDZYTo].mkv, title_index=0
Input #0, matroska,webm, from '/mnt/HDD/Media(2)/Extras/TVアニメ「フードコートで、また明日。」ノンクレジットオープニング映像｜7月7日（月）よりTOKYO MX他各局にて放送中！ [Mes1XCDZYTo].mkv':
  Metadata:
    COMPATIBLE_BRANDS: iso6mp41
    MAJOR_BRAND     : dash
    MINOR_VERSION   : 0
    ENCODER         : Lavf61.7.100
  Duration: 00:01:30.11, start: 0.000000, bitrate: 2395 kb/s
  Stream #0:0: Video: vp9 (Profile 0), yuv420p(tv, bt709), 1920x1080, 23.98 fps, 23.98 tbr, 1k tbn (default)
      Metadata:
        HANDLER_NAME    : ISO Media file produced by Google Inc. Created on: 08/05/2025.
        VENDOR_ID       : [0][0][0][0]
        DURATION        : 00:01:30.090000000
  Stream #0:1(eng): Audio: opus, 48000 Hz, stereo, fltp (default)
      Metadata:
        DURATION        : 00:01:30.108000000
[14:41:17] scan: decoding previews for title 1
[14:41:17] scan: audio 0x1: opus, rate=48000Hz, bitrate=1 English (Opus, 2.0 ch)
[14:41:17] scan: 10 previews, 1920x1080, 23.979 fps, autocrop = 0/0/0/0, aspect 16:9, PAR 1:1, color profile: 1-1-1, chroma location: unspecified
[14:41:17] libhb: scan thread found 1 valid title(s)
[14:41:23] gtkgui: Preset: /General/HQ 2160p60 4K AV1 Surround
[14:41:23] Starting work at: Sat Aug  9 14:41:23 2025

[14:41:23] 1 job(s) to process
[14:41:23] json job:
{
    "Audio": {
        "AudioList": [
            {
                "Bitrate": 160,
                "CompressionLevel": -1.0,
                "DRC": 0.0,
                "DitherMethod": "auto",
                "Encoder": "av_aac",
                "Gain": 0.0,
                "Mixdown": "stereo",
                "NormalizeMixLevel": false,
                "PresetEncoder": "av_aac",
                "Quality": -3.0,
                "Samplerate": 0,
                "Track": 0
            },
            {
                "Bitrate": 640,
                "CompressionLevel": -1.0,
                "DRC": 0.0,
                "DitherMethod": "auto",
                "Encoder": "ac3",
                "Gain": 0.0,
                "Mixdown": "stereo",
                "NormalizeMixLevel": false,
                "PresetEncoder": "copy:ac3",
                "Quality": -3.0,
                "Samplerate": 0,
                "Track": 0
            }
        ],
        "CopyMask": [
            "copy:aac"
        ],
        "FallbackEncoder": "av_aac"
    },
    "Destination": {
        "AlignAVStart": true,
        "ChapterList": [
            {
                "Duration": {
                    "Hours": 0,
                    "Minutes": 1,
                    "Seconds": 30,
                    "Ticks": 8109720
                },
                "Name": ""
            }
        ],
        "ChapterMarkers": false,
        "File": "/home/ray/TVアニメ「フードコートで、また明日。」ノンクレジットオープニング映像｜7月7日（月）よりTOKYO MX他各局にて放送中！ [Mes1XCDZYTo].mp4",
        "InlineParameterSets": false,
        "Mux": "m4v",
        "Options": {
            "IpodAtom": false,
            "Optimize": false
        }
    },
    "Filters": {
        "FilterList": [
            {
                "ID": 4,
                "Settings": {
                    "block-height": "16",
                    "block-thresh": "40",
                    "block-width": "16",
                    "filter-mode": "2",
                    "mode": "3",
                    "motion-thresh": "1",
                    "spatial-metric": "2",
                    "spatial-thresh": "1"
                }
            },
            {
                "ID": 6,
                "Settings": {
                    "mode": "7"
                }
            },
            {
                "ID": 11,
                "Settings": {
                    "mode": 2,
                    "rate": "27000000/450000"
                }
            },
            {
                "ID": 20,
                "Settings": {
                    "crop-bottom": 0,
                    "crop-left": 0,
                    "crop-right": 0,
                    "crop-top": 0,
                    "height": 1080,
                    "width": 1920
                }
            }
        ]
    },
    "Metadata": {},
    "PAR": {
        "Den": 1,
        "Num": 1
    },
    "SequenceID": 0,
    "Source": {
        "Angle": 0,
        "HWDecode": 0,
        "KeepDuplicateTitles": false,
        "Path": "/mnt/HDD/Media(2)/Extras/TVアニメ「フードコートで、また明日。」ノンクレジットオープニング映像｜7月7日（月）よりTOKYO MX他各局にて放送中！ [Mes1XCDZYTo].mkv",
        "Range": {
            "End": 1,
            "Start": 1,
            "Type": "chapter"
        },
        "Title": 1
    },
    "Subtitle": {
        "Search": {
            "Burn": true,
            "Default": false,
            "Enable": false,
            "Forced": false
        },
        "SubtitleList": []
    },
    "Video": {
        "ChromaLocation": 0,
        "ColorInputFormat": 0,
        "ColorMatrix": 1,
        "ColorOutputFormat": 0,
        "ColorPrimaries": 1,
        "ColorRange": 1,
        "ColorTransfer": 1,
        "Encoder": "svt_av1_10bit",
        "HardwareDecode": 0,
        "Level": "auto",
        "MultiPass": false,
        "Options": "",
        "Preset": "7",
        "Profile": "main",
        "QSV": {
            "AdapterIndex": 0,
            "AsyncDepth": 0,
            "Decode": false
        },
        "Quality": 25.0,
        "Tune": "",
        "Turbo": false
    }
}
[14:41:23] CPU: AMD Ryzen 7 5800X3D 8-Core Processor
[14:41:23]  - logical processor count: 16
[14:41:23] Intel Quick Sync Video support: no
[14:41:23] hb_scan: path=/mnt/HDD/Media(2)/Extras/TVアニメ「フードコートで、また明日。」ノンクレジットオープニング映像｜7月7日（月）よりTOKYO MX他各局にて放送中！ [Mes1XCDZYTo].mkv, title_index=1
Input #0, matroska,webm, from '/mnt/HDD/Media(2)/Extras/TVアニメ「フードコートで、また明日。」ノンクレジットオープニング映像｜7月7日（月）よりTOKYO MX他各局にて放送中！ [Mes1XCDZYTo].mkv':
  Metadata:
    COMPATIBLE_BRANDS: iso6mp41
    MAJOR_BRAND     : dash
    MINOR_VERSION   : 0
    ENCODER         : Lavf61.7.100
  Duration: 00:01:30.11, start: 0.000000, bitrate: 2395 kb/s
  Stream #0:0: Video: vp9 (Profile 0), yuv420p(tv, bt709), 1920x1080, 23.98 fps, 23.98 tbr, 1k tbn (default)
      Metadata:
        HANDLER_NAME    : ISO Media file produced by Google Inc. Created on: 08/05/2025.
        VENDOR_ID       : [0][0][0][0]
        DURATION        : 00:01:30.090000000
  Stream #0:1(eng): Audio: opus, 48000 Hz, stereo, fltp (default)
      Metadata:
        DURATION        : 00:01:30.108000000
[14:41:23] scan: decoding previews for title 1
[14:41:23] scan: audio 0x1: opus, rate=48000Hz, bitrate=1 English (Opus, 2.0 ch)
[14:41:23] scan: 10 previews, 1920x1080, 23.979 fps, autocrop = 0/0/0/0, aspect 16:9, PAR 1:1, color profile: 1-1-1, chroma location: unspecified
[14:41:23] libhb: scan thread found 1 valid title(s)
[14:41:23] Starting Task: Encoding Pass
[14:41:23] work: skipping crop/scale filter
[14:41:23] job configuration:
[14:41:23]  * source
[14:41:23]    + /mnt/HDD/Media(2)/Extras/TVアニメ「フードコートで、また明日。」ノンクレジットオープニング映像｜7月7日（月）よりTOKYO MX他各局にて放送中！ [Mes1XCDZYTo].mkv
[14:41:23]    + title 1, chapter(s) 1 to 1
[14:41:23]    + container: matroska,webm
[14:41:23]    + data rate: 2395 kbps
[14:41:23]  * destination
[14:41:23]    + /home/ray/TVアニメ「フードコートで、また明日。」ノンクレジットオープニング映像｜7月7日（月）よりTOKYO MX他各局にて放送中！ [Mes1XCDZYTo].mp4
[14:41:23]    + container: MPEG-4 (libavformat)
[14:41:23]      + align initial A/V stream timestamps
[14:41:23]  * video track
[14:41:23]    + decoder: vp9 8-bit (yuv420p)
[14:41:23]    + filters
[14:41:23]      + Comb Detect (mode=3:spatial-metric=2:motion-thresh=1:spatial-thresh=1:filter-mode=2:block-thresh=40:block-width=16:block-height=16)
[14:41:23]      + Decomb (mode=39)
[14:41:23]      + Framerate Shaper (mode=2:rate=27000000/450000)
[14:41:23]        + frame rate: 23.979 fps -> peak rate limited to 60.000 fps
[14:41:23]      + Format (format=yuv420p10le)
[14:41:23]    + Output geometry
[14:41:23]      + storage dimensions: 1920 x 1080
[14:41:23]      + pixel aspect ratio: 1 : 1
[14:41:23]      + display dimensions: 1920 x 1080
[14:41:23]    + encoder: AV1 10-bit (SVT)
[14:41:23]      + preset:  7
[14:41:23]      + profile: main
[14:41:23]      + level:   auto
[14:41:23]      + quality: 25.00 (RF)
[14:41:23]      + color profile: 1-1-1
[14:41:23]      + color range: tv
[14:41:23]      + chroma location: unspecified
[14:41:23]  * audio track 1
[14:41:23]    + decoder: English (Opus, 2.0 ch) (track 1, id 0x1)
[14:41:23]      + samplerate: 48000 Hz
[14:41:23]    + mixdown: Stereo
[14:41:23]    + encoder: AAC (libavcodec)
[14:41:23]      + bitrate: 160 kbps, samplerate: 48000 Hz
[14:41:23]  * audio track 2
[14:41:23]    + decoder: English (Opus, 2.0 ch) (track 1, id 0x1)
[14:41:23]      + samplerate: 48000 Hz
[14:41:23]    + mixdown: Stereo
[14:41:23]    + encoder: AC3 (libavcodec)
[14:41:23]      + bitrate: 640 kbps, samplerate: 48000 Hz
[14:41:23] sync: expecting 2160 video frames
Svt[info]: -------------------------------------------
Svt[info]: SVT [version]:	SVT-AV1 Encoder Lib v3.0.2
Svt[info]: SVT [build]  :	GCC 14.2.1 20250207	 64 bit
Svt[info]: -------------------------------------------
Svt[info]: Level of Parallelism: 5
Svt[info]: Number of PPCS 140
Svt[info]: [asm level on system : up to avx2]
Svt[info]: [asm level selected : up to avx2]
Svt[info]: -------------------------------------------
Svt[info]: SVT [config]: main profile	tier (auto)	level (auto)
Svt[info]: SVT [config]: width / height / fps numerator / fps denominator 		: 1920 / 1080 / 9000000 / 375329
Svt[info]: SVT [config]: bit-depth / color format 					: 10 / YUV420
Svt[info]: SVT [config]: preset / tune / pred struct 					: 7 / VQ / random access
Svt[info]: SVT [config]: gop size / mini-gop size / key-frame type 			: 245 / 32 / key frame
Svt[info]: SVT [config]: BRC mode / rate factor 					: CRF / 25 
Svt[info]: SVT [config]: AQ mode / variance boost 					: 2 / 0
Svt[info]: SVT [config]: sharpness / luminance-based QP bias 			: 0 / 0
Svt[info]: Svt[info]: -------------------------------------------
[14:41:24] sync: first pts video is 0
[14:41:24] sync: Chapter 1 at frame 1 time 0
[14:41:24] sync: first pts audio 0x1 is 0
[14:41:24] sync: first pts audio 0x1 is 0
[14:41:46] reader: done. 1 scr changes
[14:41:48] work: average encoding speed for job is 92.640999 fps
[14:41:48] comb detect: heavy 7 | light 83 | uncombed 2070 | total 2160
[14:41:48] decomb: deinterlaced 7 | blended 83 | unfiltered 2070 | total 2160
[14:41:48] vfr: 2160 frames output, 0 dropped and 0 duped for CFR/PFR
[14:41:48] vfr: lost time: 0 (0 frames)
[14:41:48] vfr: gained time: 0 (0 frames) (0 not accounted for)
[14:41:49] opus-decoder done: 4505 frames, 0 decoder errors
[14:41:49] opus-decoder done: 4505 frames, 0 decoder errors
[14:41:49] vp9-decoder done: 2160 frames, 0 decoder errors
[14:41:49] sync: got 2160 frames, 2160 expected
[14:41:49] sync: framerate min 23.979 fps, max 23.979 fps, avg 23.979 fps
[14:41:49] mux: track 0, 2160 frames, 32681690 bytes, 2901.15 kbps, fifo 1024
[14:41:49] mux: track 1, 4224 frames, 1826626 bytes, 162.15 kbps, fifo 2048
[14:41:49] mux: track 2, 2815 frames, 7206400 bytes, 639.71 kbps, fifo 2048
[14:41:49] Finished work at: Sat Aug  9 14:41:49 2025

[14:41:49] libhb: work result = 0
[14:42:01] gtkgui: Modified Preset: /General/HQ 2160p60 4K AV1 Surround
[14:42:01] Starting work at: Sat Aug  9 14:42:01 2025

[14:42:01] 1 job(s) to process
[14:42:01] json job:
{
    "Audio": {
        "AudioList": [
            {
                "Bitrate": 160,
                "CompressionLevel": -1.0,
                "DRC": 0.0,
                "DitherMethod": "auto",
                "Encoder": "av_aac",
                "Gain": 0.0,
                "Mixdown": "stereo",
                "NormalizeMixLevel": false,
                "PresetEncoder": "av_aac",
                "Quality": -3.0,
                "Samplerate": 0,
                "Track": 0
            },
            {
                "Bitrate": 640,
                "CompressionLevel": -1.0,
                "DRC": 0.0,
                "DitherMethod": "auto",
                "Encoder": "ac3",
                "Gain": 0.0,
                "Mixdown": "stereo",
                "NormalizeMixLevel": false,
                "PresetEncoder": "copy:ac3",
                "Quality": -3.0,
                "Samplerate": 0,
                "Track": 0
            }
        ],
        "CopyMask": [
            "copy:aac"
        ],
        "FallbackEncoder": "av_aac"
    },
    "Destination": {
        "AlignAVStart": true,
        "ChapterList": [
            {
                "Duration": {
                    "Hours": 0,
                    "Minutes": 1,
                    "Seconds": 30,
                    "Ticks": 8109720
                },
                "Name": ""
            }
        ],
        "ChapterMarkers": false,
        "File": "/home/ray/TVアニメ「フードコートで、また明日。」ノンクレジットオープニング映像｜7月7日（月）よりTOKYO MX他各局にて放送中！ [Mes1XCDZYTo].mp4",
        "InlineParameterSets": false,
        "Mux": "m4v",
        "Options": {
            "IpodAtom": false,
            "Optimize": false
        }
    },
    "Filters": {
        "FilterList": [
            {
                "ID": 4,
                "Settings": {
                    "block-height": "16",
                    "block-thresh": "40",
                    "block-width": "16",
                    "filter-mode": "2",
                    "mode": "3",
                    "motion-thresh": "1",
                    "spatial-metric": "2",
                    "spatial-thresh": "1"
                }
            },
            {
                "ID": 6,
                "Settings": {
                    "mode": "7"
                }
            },
            {
                "ID": 11,
                "Settings": {
                    "mode": 2,
                    "rate": "27000000/450000"
                }
            },
            {
                "ID": 20,
                "Settings": {
                    "crop-bottom": 0,
                    "crop-left": 0,
                    "crop-right": 0,
                    "crop-top": 0,
                    "height": 1080,
                    "width": 1920
                }
            }
        ]
    },
    "Metadata": {},
    "PAR": {
        "Den": 1,
        "Num": 1
    },
    "SequenceID": 0,
    "Source": {
        "Angle": 0,
        "HWDecode": 0,
        "KeepDuplicateTitles": false,
        "Path": "/mnt/HDD/Media(2)/Extras/TVアニメ「フードコートで、また明日。」ノンクレジットオープニング映像｜7月7日（月）よりTOKYO MX他各局にて放送中！ [Mes1XCDZYTo].mkv",
        "Range": {
            "End": 1,
            "Start": 1,
            "Type": "chapter"
        },
        "Title": 1
    },
    "Subtitle": {
        "Search": {
            "Burn": true,
            "Default": false,
            "Enable": false,
            "Forced": false
        },
        "SubtitleList": []
    },
    "Video": {
        "ChromaLocation": 0,
        "ColorInputFormat": 0,
        "ColorMatrix": 1,
        "ColorOutputFormat": 0,
        "ColorPrimaries": 1,
        "ColorRange": 1,
        "ColorTransfer": 1,
        "Encoder": "svt_av1_10bit",
        "HardwareDecode": 0,
        "Level": "auto",
        "MultiPass": false,
        "Options": "",
        "Preset": "-1",
        "Profile": "main",
        "QSV": {
            "AdapterIndex": 0,
            "AsyncDepth": 0,
            "Decode": false
        },
        "Quality": 25.0,
        "Tune": "",
        "Turbo": false
    }
}
[14:42:01] CPU: AMD Ryzen 7 5800X3D 8-Core Processor
[14:42:01]  - logical processor count: 16
[14:42:01] Intel Quick Sync Video support: no
[14:42:01] hb_scan: path=/mnt/HDD/Media(2)/Extras/TVアニメ「フードコートで、また明日。」ノンクレジットオープニング映像｜7月7日（月）よりTOKYO MX他各局にて放送中！ [Mes1XCDZYTo].mkv, title_index=1
Input #0, matroska,webm, from '/mnt/HDD/Media(2)/Extras/TVアニメ「フードコートで、また明日。」ノンクレジットオープニング映像｜7月7日（月）よりTOKYO MX他各局にて放送中！ [Mes1XCDZYTo].mkv':
  Metadata:
    COMPATIBLE_BRANDS: iso6mp41
    MAJOR_BRAND     : dash
    MINOR_VERSION   : 0
    ENCODER         : Lavf61.7.100
  Duration: 00:01:30.11, start: 0.000000, bitrate: 2395 kb/s
  Stream #0:0: Video: vp9 (Profile 0), yuv420p(tv, bt709), 1920x1080, 23.98 fps, 23.98 tbr, 1k tbn (default)
      Metadata:
        HANDLER_NAME    : ISO Media file produced by Google Inc. Created on: 08/05/2025.
        VENDOR_ID       : [0][0][0][0]
        DURATION        : 00:01:30.090000000
  Stream #0:1(eng): Audio: opus, 48000 Hz, stereo, fltp (default)
      Metadata:
        DURATION        : 00:01:30.108000000
[14:42:01] scan: decoding previews for title 1
[14:42:01] scan: audio 0x1: opus, rate=48000Hz, bitrate=1 English (Opus, 2.0 ch)
[14:42:02] scan: 10 previews, 1920x1080, 23.979 fps, autocrop = 0/0/0/0, aspect 16:9, PAR 1:1, color profile: 1-1-1, chroma location: unspecified
[14:42:02] libhb: scan thread found 1 valid title(s)
[14:42:02] Starting Task: Encoding Pass
[14:42:02] work: skipping crop/scale filter
[14:42:02] job configuration:
[14:42:02]  * source
[14:42:02]    + /mnt/HDD/Media(2)/Extras/TVアニメ「フードコートで、また明日。」ノンクレジットオープニング映像｜7月7日（月）よりTOKYO MX他各局にて放送中！ [Mes1XCDZYTo].mkv
[14:42:02]    + title 1, chapter(s) 1 to 1
[14:42:02]    + container: matroska,webm
[14:42:02]    + data rate: 2395 kbps
[14:42:02]  * destination
[14:42:02]    + /home/ray/TVアニメ「フードコートで、また明日。」ノンクレジットオープニング映像｜7月7日（月）よりTOKYO MX他各局にて放送中！ [Mes1XCDZYTo].mp4
[14:42:02]    + container: MPEG-4 (libavformat)
[14:42:02]      + align initial A/V stream timestamps
[14:42:02]  * video track
[14:42:02]    + decoder: vp9 8-bit (yuv420p)
[14:42:02]    + filters
[14:42:02]      + Comb Detect (mode=3:spatial-metric=2:motion-thresh=1:spatial-thresh=1:filter-mode=2:block-thresh=40:block-width=16:block-height=16)
[14:42:02]      + Decomb (mode=39)
[14:42:02]      + Framerate Shaper (mode=2:rate=27000000/450000)
[14:42:02]        + frame rate: 23.979 fps -> peak rate limited to 60.000 fps
[14:42:02]      + Format (format=yuv420p10le)
[14:42:02]    + Output geometry
[14:42:02]      + storage dimensions: 1920 x 1080
[14:42:02]      + pixel aspect ratio: 1 : 1
[14:42:02]      + display dimensions: 1920 x 1080
[14:42:02]    + encoder: AV1 10-bit (SVT)
[14:42:02]      + preset:  -1
[14:42:02]      + profile: main
[14:42:02]      + level:   auto
[14:42:02]      + quality: 25.00 (RF)
[14:42:02]      + color profile: 1-1-1
[14:42:02]      + color range: tv
[14:42:02]      + chroma location: unspecified
[14:42:02]  * audio track 1
[14:42:02]    + decoder: English (Opus, 2.0 ch) (track 1, id 0x1)
[14:42:02]      + samplerate: 48000 Hz
[14:42:02]    + mixdown: Stereo
[14:42:02]    + encoder: AAC (libavcodec)
[14:42:02]      + bitrate: 160 kbps, samplerate: 48000 Hz
[14:42:02]  * audio track 2
[14:42:02]    + decoder: English (Opus, 2.0 ch) (track 1, id 0x1)
[14:42:02]      + samplerate: 48000 Hz
[14:42:02]    + mixdown: Stereo
[14:42:02]    + encoder: AC3 (libavcodec)
[14:42:02]      + bitrate: 640 kbps, samplerate: 48000 Hz
[14:42:02] sync: expecting 2160 video frames
Svt[info]: -------------------------------------------
Svt[info]: SVT [version]:	SVT-AV1 Encoder Lib v3.0.2
Svt[info]: SVT [build]  :	GCC 14.2.1 20250207	 64 bit
Svt[info]: -------------------------------------------
Svt[info]: Level of Parallelism: 5
Svt[info]: Number of PPCS 140
Svt[info]: [asm level on system : up to avx2]
Svt[info]: [asm level selected : up to avx2]
Svt[info]: -------------------------------------------
Svt[info]: SVT [config]: main profile	tier (auto)	level (auto)
Svt[info]: SVT [config]: width / height / fps numerator / fps denominator 		: 1920 / 1080 / 9000000 / 375329
Svt[info]: SVT [config]: bit-depth / color format 					: 10 / YUV420
Svt[info]: SVT [config]: preset / tune / pred struct 					: -1 / VQ / random access
Svt[info]: SVT [config]: gop size / mini-gop size / key-frame type 			: 245 / 32 / key frame
Svt[info]: SVT [config]: BRC mode / rate factor 					: CRF / 25 
Svt[info]: SVT [config]: AQ mode / variance boost 					: 2 / 0
Svt[info]: SVT [config]: sharpness / luminance-based QP bias 			: 0 / 0
Svt[info]: Svt[info]: -------------------------------------------
[14:42:02] sync: first pts video is 0
[14:42:02] sync: Chapter 1 at frame 1 time 0
[14:42:02] sync: first pts audio 0x1 is 0
[14:42:02] sync: first pts audio 0x1 is 0
[14:42:35] reader: done. 1 scr changes
[14:42:35] work: average encoding speed for job is 0.000000 fps
[14:42:35] comb detect: heavy 0 | light 13 | uncombed 159 | total 172
[14:42:35] decomb: deinterlaced 0 | blended 13 | unfiltered 150 | total 163
[14:42:35] vfr: 154 frames output, 0 dropped and 0 duped for CFR/PFR
[14:42:35] vfr: lost time: 0 (0 frames)
[14:42:35] vfr: gained time: 0 (0 frames) (0 not accounted for)
